<mxfile host="app.diagrams.net" modified="2022-10-31T09:24:30.153Z" agent="5.0 (Macintosh; Intel Mac OS X 10_15_7) AppleWebKit/537.36 (KHTML, like Gecko) Chrome/106.0.0.0 Safari/537.36" etag="ggRaYj5c34jBjSEvY1FD" version="20.5.1" type="github">
  <diagram id="307WcVFmkp1FFGV7HXbk" name="第 1 页">
    <mxGraphModel dx="925" dy="532" grid="1" gridSize="10" guides="1" tooltips="1" connect="1" arrows="1" fold="1" page="1" pageScale="1" pageWidth="827" pageHeight="1169" math="0" shadow="0">
      <root>
        <mxCell id="0" />
        <mxCell id="1" parent="0" />
        <mxCell id="2LLIWVW_UZZgvgAXtciZ-1" value="P1 EZR推送处理系统" style="rounded=1;whiteSpace=wrap;html=1;" vertex="1" parent="1">
          <mxGeometry x="290" y="310" width="94" height="90" as="geometry" />
        </mxCell>
        <mxCell id="2LLIWVW_UZZgvgAXtciZ-2" value="S1 用户" style="rounded=0;whiteSpace=wrap;html=1;" vertex="1" parent="1">
          <mxGeometry x="70" y="200" width="80" height="70" as="geometry" />
        </mxCell>
        <mxCell id="2LLIWVW_UZZgvgAXtciZ-4" value="P2 操作推送数据" style="rounded=1;whiteSpace=wrap;html=1;" vertex="1" parent="1">
          <mxGeometry x="290" y="80" width="94" height="90" as="geometry" />
        </mxCell>
        <mxCell id="2LLIWVW_UZZgvgAXtciZ-5" value="D1 推送信息" style="strokeWidth=2;html=1;shape=mxgraph.flowchart.annotation_1;align=center;pointerEvents=1;" vertex="1" parent="1">
          <mxGeometry x="520" y="210" width="90" height="60" as="geometry" />
        </mxCell>
        <mxCell id="2LLIWVW_UZZgvgAXtciZ-6" value="" style="endArrow=classic;html=1;rounded=0;edgeStyle=elbowEdgeStyle;entryX=0;entryY=0.5;entryDx=0;entryDy=0;startArrow=none;" edge="1" parent="1" source="2LLIWVW_UZZgvgAXtciZ-18" target="2LLIWVW_UZZgvgAXtciZ-4">
          <mxGeometry width="50" height="50" relative="1" as="geometry">
            <mxPoint x="150" y="234.5" as="sourcePoint" />
            <mxPoint x="320" y="234.5" as="targetPoint" />
          </mxGeometry>
        </mxCell>
        <mxCell id="2LLIWVW_UZZgvgAXtciZ-7" value="S2 EZR" style="rounded=0;whiteSpace=wrap;html=1;" vertex="1" parent="1">
          <mxGeometry x="70" y="440" width="80" height="70" as="geometry" />
        </mxCell>
        <mxCell id="2LLIWVW_UZZgvgAXtciZ-8" value="D2 推送完成信息" style="strokeWidth=2;html=1;shape=mxgraph.flowchart.annotation_1;align=center;pointerEvents=1;" vertex="1" parent="1">
          <mxGeometry x="520" y="440" width="100" height="60" as="geometry" />
        </mxCell>
        <mxCell id="2LLIWVW_UZZgvgAXtciZ-9" value="" style="endArrow=classic;html=1;rounded=0;exitX=1;exitY=0.5;exitDx=0;exitDy=0;edgeStyle=elbowEdgeStyle;elbow=horizontal;startArrow=none;" edge="1" parent="1" source="2LLIWVW_UZZgvgAXtciZ-19">
          <mxGeometry width="50" height="50" relative="1" as="geometry">
            <mxPoint x="470" y="290" as="sourcePoint" />
            <mxPoint x="520" y="240" as="targetPoint" />
          </mxGeometry>
        </mxCell>
        <mxCell id="2LLIWVW_UZZgvgAXtciZ-10" value="" style="endArrow=classic;html=1;rounded=0;exitX=-0.005;exitY=0.498;exitDx=0;exitDy=0;edgeStyle=elbowEdgeStyle;entryX=0.25;entryY=1;entryDx=0;entryDy=0;startArrow=none;elbow=vertical;exitPerimeter=0;" edge="1" parent="1" source="2LLIWVW_UZZgvgAXtciZ-39" target="2LLIWVW_UZZgvgAXtciZ-2">
          <mxGeometry width="50" height="50" relative="1" as="geometry">
            <mxPoint x="60" y="320" as="sourcePoint" />
            <mxPoint x="110" y="270" as="targetPoint" />
            <Array as="points">
              <mxPoint x="120" y="380" />
            </Array>
          </mxGeometry>
        </mxCell>
        <mxCell id="2LLIWVW_UZZgvgAXtciZ-11" value="" style="endArrow=classic;html=1;rounded=0;entryX=1;entryY=0.75;entryDx=0;entryDy=0;edgeStyle=elbowEdgeStyle;exitX=-0.055;exitY=0.428;exitDx=0;exitDy=0;exitPerimeter=0;startArrow=none;" edge="1" parent="1" source="2LLIWVW_UZZgvgAXtciZ-24" target="2LLIWVW_UZZgvgAXtciZ-1">
          <mxGeometry width="50" height="50" relative="1" as="geometry">
            <mxPoint x="560" y="270" as="sourcePoint" />
            <mxPoint x="610" y="220" as="targetPoint" />
            <Array as="points">
              <mxPoint x="450" y="378" />
            </Array>
          </mxGeometry>
        </mxCell>
        <mxCell id="2LLIWVW_UZZgvgAXtciZ-12" value="" style="endArrow=classic;html=1;rounded=0;entryX=0;entryY=0.25;entryDx=0;entryDy=0;exitX=1.021;exitY=0.394;exitDx=0;exitDy=0;edgeStyle=elbowEdgeStyle;startArrow=none;exitPerimeter=0;" edge="1" parent="1" source="2LLIWVW_UZZgvgAXtciZ-40" target="2LLIWVW_UZZgvgAXtciZ-1">
          <mxGeometry width="50" height="50" relative="1" as="geometry">
            <mxPoint x="240" y="390" as="sourcePoint" />
            <mxPoint x="290" y="340" as="targetPoint" />
            <Array as="points" />
          </mxGeometry>
        </mxCell>
        <mxCell id="2LLIWVW_UZZgvgAXtciZ-13" value="" style="endArrow=classic;html=1;rounded=0;exitX=0.994;exitY=0.42;exitDx=0;exitDy=0;edgeStyle=elbowEdgeStyle;startArrow=none;exitPerimeter=0;" edge="1" parent="1" source="2LLIWVW_UZZgvgAXtciZ-30">
          <mxGeometry width="50" height="50" relative="1" as="geometry">
            <mxPoint x="490" y="320" as="sourcePoint" />
            <mxPoint x="540" y="270" as="targetPoint" />
            <Array as="points">
              <mxPoint x="540" y="300" />
            </Array>
          </mxGeometry>
        </mxCell>
        <mxCell id="2LLIWVW_UZZgvgAXtciZ-14" value="" style="endArrow=classic;html=1;rounded=0;entryX=1;entryY=0.25;entryDx=0;entryDy=0;edgeStyle=elbowEdgeStyle;elbow=vertical;startArrow=none;" edge="1" parent="1" source="2LLIWVW_UZZgvgAXtciZ-44" target="2LLIWVW_UZZgvgAXtciZ-7">
          <mxGeometry width="50" height="50" relative="1" as="geometry">
            <mxPoint x="300" y="400" as="sourcePoint" />
            <mxPoint x="250" y="510" as="targetPoint" />
            <Array as="points">
              <mxPoint x="170" y="458" />
            </Array>
          </mxGeometry>
        </mxCell>
        <mxCell id="2LLIWVW_UZZgvgAXtciZ-15" value="" style="endArrow=classic;html=1;rounded=0;exitX=1.039;exitY=0.331;exitDx=0;exitDy=0;entryX=0.385;entryY=0.997;entryDx=0;entryDy=0;entryPerimeter=0;edgeStyle=elbowEdgeStyle;elbow=vertical;startArrow=none;exitPerimeter=0;" edge="1" parent="1" source="2LLIWVW_UZZgvgAXtciZ-38" target="2LLIWVW_UZZgvgAXtciZ-1">
          <mxGeometry width="50" height="50" relative="1" as="geometry">
            <mxPoint x="290" y="450" as="sourcePoint" />
            <mxPoint x="340" y="400" as="targetPoint" />
            <Array as="points">
              <mxPoint x="240" y="490" />
            </Array>
          </mxGeometry>
        </mxCell>
        <mxCell id="2LLIWVW_UZZgvgAXtciZ-16" value="" style="endArrow=classic;html=1;rounded=0;exitX=1.014;exitY=0.344;exitDx=0;exitDy=0;exitPerimeter=0;edgeStyle=elbowEdgeStyle;elbow=vertical;startArrow=none;" edge="1" parent="1" source="2LLIWVW_UZZgvgAXtciZ-32">
          <mxGeometry width="50" height="50" relative="1" as="geometry">
            <mxPoint x="470" y="530" as="sourcePoint" />
            <mxPoint x="520" y="480" as="targetPoint" />
            <Array as="points">
              <mxPoint x="440" y="480" />
            </Array>
          </mxGeometry>
        </mxCell>
        <mxCell id="2LLIWVW_UZZgvgAXtciZ-17" value="" style="endArrow=classic;html=1;rounded=0;entryX=0.883;entryY=1.001;entryDx=0;entryDy=0;entryPerimeter=0;exitX=-0.023;exitY=0.557;exitDx=0;exitDy=0;exitPerimeter=0;edgeStyle=elbowEdgeStyle;startArrow=none;" edge="1" parent="1" source="2LLIWVW_UZZgvgAXtciZ-36" target="2LLIWVW_UZZgvgAXtciZ-1">
          <mxGeometry width="50" height="50" relative="1" as="geometry">
            <mxPoint x="480" y="430" as="sourcePoint" />
            <mxPoint x="370" y="400" as="targetPoint" />
            <Array as="points">
              <mxPoint x="373" y="430" />
            </Array>
          </mxGeometry>
        </mxCell>
        <mxCell id="2LLIWVW_UZZgvgAXtciZ-19" value="更新信息" style="text;html=1;align=center;verticalAlign=middle;resizable=0;points=[];autosize=1;strokeColor=none;fillColor=none;" vertex="1" parent="1">
          <mxGeometry x="414" y="180" width="70" height="30" as="geometry" />
        </mxCell>
        <mxCell id="2LLIWVW_UZZgvgAXtciZ-22" value="" style="endArrow=none;html=1;rounded=0;exitX=1;exitY=0.5;exitDx=0;exitDy=0;edgeStyle=elbowEdgeStyle;elbow=horizontal;" edge="1" parent="1" source="2LLIWVW_UZZgvgAXtciZ-4" target="2LLIWVW_UZZgvgAXtciZ-19">
          <mxGeometry width="50" height="50" relative="1" as="geometry">
            <mxPoint x="384" y="125" as="sourcePoint" />
            <mxPoint x="520" y="240" as="targetPoint" />
          </mxGeometry>
        </mxCell>
        <mxCell id="2LLIWVW_UZZgvgAXtciZ-18" value="操作推送信息" style="text;html=1;align=center;verticalAlign=middle;resizable=0;points=[];autosize=1;strokeColor=none;fillColor=none;" vertex="1" parent="1">
          <mxGeometry x="170" y="170" width="100" height="30" as="geometry" />
        </mxCell>
        <mxCell id="2LLIWVW_UZZgvgAXtciZ-23" value="" style="endArrow=none;html=1;rounded=0;edgeStyle=elbowEdgeStyle;entryX=0;entryY=0.5;entryDx=0;entryDy=0;" edge="1" parent="1" target="2LLIWVW_UZZgvgAXtciZ-18">
          <mxGeometry width="50" height="50" relative="1" as="geometry">
            <mxPoint x="150" y="234.5" as="sourcePoint" />
            <mxPoint x="290" y="125" as="targetPoint" />
          </mxGeometry>
        </mxCell>
        <mxCell id="2LLIWVW_UZZgvgAXtciZ-24" value="推送信息" style="text;html=1;align=center;verticalAlign=middle;resizable=0;points=[];autosize=1;strokeColor=none;fillColor=none;" vertex="1" parent="1">
          <mxGeometry x="470" y="365" width="70" height="30" as="geometry" />
        </mxCell>
        <mxCell id="2LLIWVW_UZZgvgAXtciZ-29" value="" style="endArrow=none;html=1;rounded=0;edgeStyle=elbowEdgeStyle;exitX=0.713;exitY=0.992;exitDx=0;exitDy=0;exitPerimeter=0;" edge="1" parent="1" source="2LLIWVW_UZZgvgAXtciZ-5">
          <mxGeometry width="50" height="50" relative="1" as="geometry">
            <mxPoint x="584.1699999999998" y="269.52" as="sourcePoint" />
            <mxPoint x="540" y="380" as="targetPoint" />
            <Array as="points">
              <mxPoint x="577" y="320" />
            </Array>
          </mxGeometry>
        </mxCell>
        <mxCell id="2LLIWVW_UZZgvgAXtciZ-30" value="反馈保存" style="text;html=1;align=center;verticalAlign=middle;resizable=0;points=[];autosize=1;strokeColor=none;fillColor=none;" vertex="1" parent="1">
          <mxGeometry x="440" y="320" width="70" height="30" as="geometry" />
        </mxCell>
        <mxCell id="2LLIWVW_UZZgvgAXtciZ-31" value="" style="endArrow=none;html=1;rounded=0;exitX=1;exitY=0.25;exitDx=0;exitDy=0;edgeStyle=elbowEdgeStyle;entryX=0.001;entryY=0.398;entryDx=0;entryDy=0;entryPerimeter=0;" edge="1" parent="1" source="2LLIWVW_UZZgvgAXtciZ-1" target="2LLIWVW_UZZgvgAXtciZ-30">
          <mxGeometry width="50" height="50" relative="1" as="geometry">
            <mxPoint x="384" y="332.4999999999999" as="sourcePoint" />
            <mxPoint x="440" y="332" as="targetPoint" />
            <Array as="points">
              <mxPoint x="440" y="340" />
              <mxPoint x="430" y="330" />
            </Array>
          </mxGeometry>
        </mxCell>
        <mxCell id="2LLIWVW_UZZgvgAXtciZ-32" value="保存" style="text;html=1;align=center;verticalAlign=middle;resizable=0;points=[];autosize=1;strokeColor=none;fillColor=none;" vertex="1" parent="1">
          <mxGeometry x="390" y="470" width="50" height="30" as="geometry" />
        </mxCell>
        <mxCell id="2LLIWVW_UZZgvgAXtciZ-35" value="" style="endArrow=none;html=1;rounded=0;exitX=0.632;exitY=0.999;exitDx=0;exitDy=0;exitPerimeter=0;edgeStyle=elbowEdgeStyle;elbow=vertical;entryX=0;entryY=0.333;entryDx=0;entryDy=0;entryPerimeter=0;" edge="1" parent="1" source="2LLIWVW_UZZgvgAXtciZ-1" target="2LLIWVW_UZZgvgAXtciZ-32">
          <mxGeometry width="50" height="50" relative="1" as="geometry">
            <mxPoint x="349.408" y="399.90999999999997" as="sourcePoint" />
            <mxPoint x="520" y="480" as="targetPoint" />
            <Array as="points">
              <mxPoint x="370" y="480" />
            </Array>
          </mxGeometry>
        </mxCell>
        <mxCell id="2LLIWVW_UZZgvgAXtciZ-36" value="完成信息" style="text;html=1;align=center;verticalAlign=middle;resizable=0;points=[];autosize=1;strokeColor=none;fillColor=none;" vertex="1" parent="1">
          <mxGeometry x="414" y="440" width="70" height="30" as="geometry" />
        </mxCell>
        <mxCell id="2LLIWVW_UZZgvgAXtciZ-37" value="" style="endArrow=none;html=1;rounded=0;entryX=1.004;entryY=0.573;entryDx=0;entryDy=0;entryPerimeter=0;exitX=-0.005;exitY=0.287;exitDx=0;exitDy=0;exitPerimeter=0;edgeStyle=elbowEdgeStyle;" edge="1" parent="1" source="2LLIWVW_UZZgvgAXtciZ-8" target="2LLIWVW_UZZgvgAXtciZ-36">
          <mxGeometry width="50" height="50" relative="1" as="geometry">
            <mxPoint x="519.4999999999998" y="457.2199999999999" as="sourcePoint" />
            <mxPoint x="373.00199999999995" y="400.0899999999999" as="targetPoint" />
            <Array as="points" />
          </mxGeometry>
        </mxCell>
        <mxCell id="2LLIWVW_UZZgvgAXtciZ-40" value="推送状况" style="text;html=1;align=center;verticalAlign=middle;resizable=0;points=[];autosize=1;strokeColor=none;fillColor=none;" vertex="1" parent="1">
          <mxGeometry x="170" y="320" width="70" height="30" as="geometry" />
        </mxCell>
        <mxCell id="2LLIWVW_UZZgvgAXtciZ-41" value="" style="endArrow=none;html=1;rounded=0;entryX=-0.023;entryY=0.373;entryDx=0;entryDy=0;exitX=0.75;exitY=1;exitDx=0;exitDy=0;edgeStyle=elbowEdgeStyle;entryPerimeter=0;" edge="1" parent="1" source="2LLIWVW_UZZgvgAXtciZ-2" target="2LLIWVW_UZZgvgAXtciZ-40">
          <mxGeometry width="50" height="50" relative="1" as="geometry">
            <mxPoint x="130" y="270" as="sourcePoint" />
            <mxPoint x="290" y="332.5" as="targetPoint" />
            <Array as="points">
              <mxPoint x="130" y="300" />
            </Array>
          </mxGeometry>
        </mxCell>
        <mxCell id="2LLIWVW_UZZgvgAXtciZ-39" value="信息反馈" style="text;html=1;align=center;verticalAlign=middle;resizable=0;points=[];autosize=1;strokeColor=none;fillColor=none;" vertex="1" parent="1">
          <mxGeometry x="150" y="365" width="70" height="30" as="geometry" />
        </mxCell>
        <mxCell id="2LLIWVW_UZZgvgAXtciZ-42" value="" style="endArrow=none;html=1;rounded=0;exitX=0;exitY=0.75;exitDx=0;exitDy=0;edgeStyle=elbowEdgeStyle;" edge="1" parent="1" source="2LLIWVW_UZZgvgAXtciZ-1">
          <mxGeometry width="50" height="50" relative="1" as="geometry">
            <mxPoint x="290" y="377.5" as="sourcePoint" />
            <mxPoint x="220" y="378" as="targetPoint" />
            <Array as="points" />
          </mxGeometry>
        </mxCell>
        <mxCell id="2LLIWVW_UZZgvgAXtciZ-38" value="信息反馈" style="text;html=1;align=center;verticalAlign=middle;resizable=0;points=[];autosize=1;strokeColor=none;fillColor=none;" vertex="1" parent="1">
          <mxGeometry x="195" y="480" width="70" height="30" as="geometry" />
        </mxCell>
        <mxCell id="2LLIWVW_UZZgvgAXtciZ-43" value="" style="endArrow=none;html=1;rounded=0;exitX=1;exitY=0.75;exitDx=0;exitDy=0;edgeStyle=elbowEdgeStyle;elbow=vertical;" edge="1" parent="1" source="2LLIWVW_UZZgvgAXtciZ-7">
          <mxGeometry width="50" height="50" relative="1" as="geometry">
            <mxPoint x="150" y="492.5" as="sourcePoint" />
            <mxPoint x="190" y="490" as="targetPoint" />
            <Array as="points">
              <mxPoint x="180" y="490" />
              <mxPoint x="190" y="493" />
            </Array>
          </mxGeometry>
        </mxCell>
        <mxCell id="2LLIWVW_UZZgvgAXtciZ-44" value="推送信息" style="text;html=1;align=center;verticalAlign=middle;resizable=0;points=[];autosize=1;strokeColor=none;fillColor=none;" vertex="1" parent="1">
          <mxGeometry x="185" y="440" width="70" height="30" as="geometry" />
        </mxCell>
        <mxCell id="2LLIWVW_UZZgvgAXtciZ-45" value="" style="endArrow=none;html=1;rounded=0;entryX=0.995;entryY=0.56;entryDx=0;entryDy=0;exitX=0.14;exitY=1.002;exitDx=0;exitDy=0;exitPerimeter=0;edgeStyle=elbowEdgeStyle;elbow=vertical;entryPerimeter=0;" edge="1" parent="1" source="2LLIWVW_UZZgvgAXtciZ-1" target="2LLIWVW_UZZgvgAXtciZ-44">
          <mxGeometry width="50" height="50" relative="1" as="geometry">
            <mxPoint x="303.1600000000001" y="400.18000000000006" as="sourcePoint" />
            <mxPoint x="150" y="457.5" as="targetPoint" />
            <Array as="points">
              <mxPoint x="230" y="458" />
            </Array>
          </mxGeometry>
        </mxCell>
      </root>
    </mxGraphModel>
  </diagram>
</mxfile>
